<svg width="24" height="24" viewBox="0 0 24 24" fill="none" xmlns="http://www.w3.org/2000/svg">
<path d="M11.7047 0C12.7534 0 13.7693 0.137661 14.7361 0.3955L12.2477 2.87465C12.059 3.06357 11.8925 3.27336 11.7515 3.49997H11.7047C10.0842 3.49997 8.5001 3.97893 7.15273 4.87628C5.80536 5.77365 4.7552 7.04909 4.13508 8.54134C3.51494 10.0336 3.3527 11.6756 3.66884 13.2598C3.98497 14.8439 4.7653 16.2991 5.91114 17.4412C7.05699 18.5833 8.5169 19.3611 10.1062 19.6763C11.6956 19.9913 13.343 19.8296 14.8401 19.2116C16.3372 18.5934 17.6169 17.5467 18.517 16.2036C19.4174 14.8608 19.8978 13.2818 19.8978 11.6666V11.6199C20.1226 11.4799 20.3332 11.3154 20.5241 11.1241L23.0126 8.64492C23.2712 9.60858 23.4093 10.6212 23.4093 11.6666C23.4093 18.11 18.1692 23.3331 11.7047 23.3331C5.24018 23.3331 0 18.11 0 11.6666C0 5.22311 5.24018 0 11.7047 0ZM11.2201 5.85311C11.2201 6.84594 11.1709 7.85276 11.2248 8.84442L10.5927 9.47442C10.3753 9.69112 10.2028 9.9484 10.0852 10.2316C9.9675 10.5147 9.90693 10.8182 9.90693 11.1247C9.90693 11.4311 9.9675 11.7346 10.0852 12.0177C10.2028 12.3009 10.3753 12.5582 10.5927 12.7749C10.8101 12.9916 11.0682 13.1635 11.3523 13.2808C11.6364 13.3981 11.9408 13.4584 12.2483 13.4584C12.5558 13.4584 12.8603 13.3981 13.1443 13.2808C13.4284 13.1635 13.6866 12.9916 13.9039 12.7749L14.536 12.1449C15.5309 12.1985 16.5398 12.1496 17.5371 12.1496C17.4447 13.2583 17.0359 14.3175 16.3594 15.2023C15.6828 16.0872 14.7664 16.7608 13.7183 17.1436C12.6704 17.5263 11.5344 17.6024 10.4444 17.3628C9.3544 17.123 8.3559 16.5778 7.56665 15.7911C6.7774 15.0044 6.2303 14.0091 5.9899 12.9227C5.74949 11.8363 5.8258 10.704 6.20984 9.65936C6.59386 8.61474 7.26958 7.70137 8.15732 7.02697C9.04504 6.35256 10.1077 5.94527 11.2201 5.85311ZM19.3174 0.148161C19.531 0.236457 19.7137 0.385859 19.8421 0.5775C19.9707 0.769157 20.0394 0.994461 20.0395 1.22498V3.35997H22.1803C22.4117 3.36002 22.638 3.42847 22.8305 3.55667C23.023 3.68486 23.1729 3.86705 23.2614 4.0802C23.3501 4.29335 23.3732 4.52789 23.328 4.75416C23.2828 4.98044 23.1715 5.18829 23.0078 5.35145L18.868 9.47324C18.6485 9.69206 18.3508 9.81502 18.0404 9.81508H15.2161L13.0753 11.9489C12.8556 12.1677 12.5578 12.2905 12.2473 12.2904C11.9368 12.2903 11.6391 12.1672 11.4196 11.9483C11.2002 11.7294 11.0769 11.4325 11.077 11.1231C11.0772 10.8136 11.2006 10.5168 11.4202 10.2981L13.561 8.1666V5.35029C13.5609 5.1969 13.5911 5.04498 13.65 4.90325C13.7088 4.76151 13.7952 4.63274 13.9039 4.52429L18.0416 0.400161C18.2053 0.236918 18.4139 0.125714 18.641 0.0806591C18.868 0.0355886 19.1034 0.0586727 19.3174 0.147V0.148161Z" fill="#389E0D"/>
</svg>
